<?xml version="1.0" encoding="utf-8"?>
<!-- Generator: Adobe Illustrator 15.0.0, SVG Export Plug-In . SVG Version: 6.00 Build 0)  -->
<!DOCTYPE svg PUBLIC "-//W3C//DTD SVG 1.1//EN" "http://www.w3.org/Graphics/SVG/1.1/DTD/svg11.dtd">
<svg version="1.1" id="Ebene_1" xmlns="http://www.w3.org/2000/svg" xmlns:xlink="http://www.w3.org/1999/xlink" x="0px" y="0px"
	 width="1000px" height="1000px" viewBox="10.236 10.236 1000 1000" enable-background="new 10.236 10.236 1000 1000"
	 xml:space="preserve">
<g id="color-layers">
	<path id="seite" fill="none" d="M551.403,436.159l-88.957-41.454l-97.461-43.826l-66.229-27.473l-45.276-16.823l-12.572-3.863
		l-19.5-6.072l-20.36-5.213l-16.986-3.557l-22.09-2.203l-10.656-0.495l-10.916-1.042l-16.066,0.469l-11.836,2.412l-26.185,7.053
		l-16.129,5.519l-5.151,3.434l-5.151,9.996l-12.019,23.61l-8.401,16.925l-6.132,12.51l-4.355,10.18l-1.411,4.355l-1.226,4.661
		l2.392,8.278l8.34,14.903c0,0,6.563,11.283,6.868,11.589c0.307,0.308,8.585,14.412,8.585,14.412l8.647,13.429l8.77,9.016
		l11.713,8.401l13.062,8.34l14.289,10.057l7.482,1.779l3.985,0.552c0,0,3.312,3.742,3.497,3.864
		c0.184,0.123,16.741,14.347,16.741,14.347l29.497,20.111l23.18,14.963l21.463,12.877l20.604,11.652l21.463,12.326l40.227,22.75
		l101.841,54.577l40.49,20.114l28.725,12.454l-11.311-17.359l-34.34-58.38l-16.58-30.474l-6.481-14.746l-0.482-5.076l1.461-8.978
		l7.366-19.724l12.862-25.93l4.822-9.419l6.56-5.296l24.49-14.177l44.91-20.352l33.097-12.812l15.087-5.717L551.403,436.159z"/>
	<path id="spitze" fill="none" d="M553.53,436.159c0,0-76.04,28.454-87.568,35.077s-38.509,20.727-40.471,24.774
		c-1.962,4.046-23.549,44.883-24.652,52.732c-1.104,7.85-3.557,12.265,0,20.237c3.556,7.972,23.794,49.303,27.105,54.699
		c3.312,5.396,34.584,57.89,37.773,60.955c3.189,3.065,112.956,49.794,122.153,53.842c9.199,4.046,100.693,39.246,120.562,40.104
		s77.634,3.189,94.314-6.377c16.68-9.566,37.897-32.87,39.369-46.851c1.472-13.982-2.944-43.294-6.623-56.662
		c-3.679-13.369-15.576-57.153-20.604-69.05c-5.028-11.897-15.944-41.454-28.208-48.69c-12.265-7.236-35.322-20.114-40.474-22.689
		S553.53,436.159,553.53,436.159z"/>
	<polygon id="oben" fill="none" points="457.5,391.517 418.131,374.101 362.83,349.986 299.188,323.588 248.479,305.526 
		214.045,294.766 191.348,289.406 197.615,277.21 215.833,271.323 238.865,265.151 260.457,260.78 324.424,255.039 353.211,259.141 
		394.42,267.317 446.258,286.123 476.113,299.368 509.378,314.74 511.831,351.043 498.419,360.202 490.08,365.761 479.452,373.12 
		468.17,382.441 	"/>
	<polygon id="gurt" fill="none" points="424.948,497.094 359.507,479.33 346.997,469.519 323.694,463.877 316.581,465.84 
		311.43,467.802 252.805,452.104 209.879,478.84 178.728,481.784 184.86,431.99 100.48,402.309 100.48,430.845 103.669,461.179 
		174.557,484.237 236.371,505.82 237.597,510.342 264.579,517.592 276.598,515.137 298.184,521.515 307.26,530.837 332.77,538.686 
		346.997,533.78 400.694,549.682 	"/>
	<polygon id="gurtoben" fill="none" points="416.905,373.242 434.199,341.722 386.611,319.769 365.394,350.185 302.722,324.552 
		316.581,296.588 267.4,278.191 250.352,305.052 220.304,295.975 201.662,291.069 192.832,288.984 192.832,285.55 196.879,277.333 
		195.284,273.285 200.926,266.418 147.698,271.2 141.443,282.607 141.443,284.201 175.539,286.654 204.115,292.786 222.021,297.447 
		249.74,305.91 282.976,318.665 320.751,333.015 348.469,344.911 382.319,359.629 403.536,368.827 414.084,374.101 	"/>
	<path id="kordel" fill="none" d="M482.558,330.848l-1.962-4.088l-6.297-1.798l-5.231,1.963l-5.234,2.207l-12.589,5.478
		l-15.372,7.032l-7.215-1.942l-13.348-6.296l-13.062-6.051l-9.935-4.702l-1.902-2.392l-0.245-4.17l4.783-8.953l4.415-11.897
		l5.274-10.302l5.151-0.327l9.812,2.412l12.02,1.553l10.302,6.296l6.297,1.309l3.269-5.724l-0.123-1.962l54.698,24.04l6.868,13
		l6.255,0.49v-9.566l-8.395-11.651l-55.625-23.058l-37.038-13.614l-10.302-8.585l-23.646-14.255l-19.525-10.028l-17.661-8.831
		l-29.68-8.585l-23.302-1.471l-18.643,1.226l-30.906,8.34l-27.963,13.001l-2.698,11.283l2.453,1.962l12.755-5.15l19.133-3.68
		l18.887-0.981l12.045,1.214l10.031,1.239l-12.265,4.661l-16.189,3.434l-17.661,2.453l-18.642,4.17l-14.717,3.925l-8.892,1.657
		l-9.076,0.674l-1.044-1.472l5.274-3.495l5.704-4.355l-1.104-2.208l-4.233-0.859l-6.5,2.453l-9.812,4.047l-20.604,5.887
		l-5.765,3.189l5.151,1.962l14.104-1.226l12.388-2.698l16.803-1.104l-4.661,3.598l-1.636,6.542l6.214,0.245l10.792-4.088
		l19.95-5.805l21.912-4.497l12.591-2.453l1.145,1.308c0,0-4.088,5.396-4.579,5.642c-0.49,0.245-2.779,5.642-2.779,5.642
		l-2.126,7.358l2.617,6.213l6.541-6.05l3.107-1.962l2.29-5.887l8.013-9.976l8.339-4.579l39.738-2.453l17.334,4.251l50.775,10.138
		v3.802l-15.534,2.453l-25.756,6.378l-17.048,6.009l-22.935,7.727l-5.151,10.179l1.839,0.981l6.623-0.368l6.5-1.717l19.01-7.727
		l27.104-7.972l19.501-4.293l-2.453,5.887l-6.991,16.802l-4.292,13.001l2.698,6.132l7.727-4.906l44.439,21.095l-4.988,9.486
		l12.306,0.776l43.822-20.114L482.558,330.848z M377.904,256.605l-6.5-0.735l-17.17-3.311l-16.005-3.986l-17.232-4.478
		l-21.892-5.151l-15.454-2.821l-21.157-1.104l-11.161,0.736l-1.104-3.005l6.44-2.698l9.076-2.516l16.004-3.188l12.633-0.491
		l11.959,0.859l11.283,1.839l15.882,4.17l14.044,5.519l13.859,6.624l13.797,8.217l5.582,4.232L377.904,256.605z"/>
</g>
<image overflow="visible" enable-background="new    " width="1024" height="1024" xlink:href="598E6CA0.png"  transform="matrix(0.9766 0 0 0.9766 10.2361 10.2361)">
</image>
</svg>
